HIERARCHY
ROOT Hips
{
	OFFSET 0.000000 0.000000 0.000000
	CHANNELS 6 Xposition Yposition Zposition Zrotation Yrotation Xrotation 
	JOINT LHipJoint
	{
		OFFSET 0.000000 0.000000 0.000000
		CHANNELS 3 Zrotation Yrotation Xrotation
		JOINT LeftUpLeg
		{
			OFFSET 1.363060 -1.794630 0.839290
			CHANNELS 3 Zrotation Yrotation Xrotation
			JOINT LeftLeg
			{
				OFFSET 2.448110 -6.726130 0.000000
				CHANNELS 3 Zrotation Yrotation Xrotation
				JOINT LeftFoot
				{
					OFFSET 2.562200 -7.039590 0.000000
					CHANNELS 3 Zrotation Yrotation Xrotation
					JOINT LeftToeBase
					{
						OFFSET 0.157640 -0.433110 2.322550
						CHANNELS 3 Zrotation Yrotation Xrotation
						End Site
						{
							OFFSET 0.000000 0.000000 0.000000
						}
					}
				}
			}
		}
	}
	JOINT RHipJoint
	{
		OFFSET 0.000000 0.000000 0.000000
		CHANNELS 3 Zrotation Yrotation Xrotation
		JOINT RightUpLeg
		{
			OFFSET -1.305520 -1.794630 0.839290
			CHANNELS 3 Zrotation Yrotation Xrotation
			JOINT RightLeg
			{
				OFFSET -2.542530 -6.985550 0.000000
				CHANNELS 3 Zrotation Yrotation Xrotation
				JOINT RightFoot
				{
					OFFSET -2.568260 -7.056230 0.000000
					CHANNELS 3 Zrotation Yrotation Xrotation
					JOINT RightToeBase
					{
						OFFSET -0.164730 -0.452590 2.363150
						CHANNELS 3 Zrotation Yrotation Xrotation
						End Site
						{
							OFFSET 0.000000 0.000000 0.000000
						}
					}
				}
			}
		}
	}
	JOINT LowerBack
	{
		OFFSET 0.000000 0.000000 0.000000
		CHANNELS 3 Zrotation Yrotation Xrotation
		JOINT Spine
		{
			OFFSET 0.028270 2.035590 -0.193380
			CHANNELS 3 Zrotation Yrotation Xrotation
			JOINT Spine1
			{
				OFFSET 0.056720 2.048850 -0.042750
				CHANNELS 3 Zrotation Yrotation Xrotation
				JOINT Neck
				{
					OFFSET 0.000000 0.000000 0.000000
					CHANNELS 3 Zrotation Yrotation Xrotation
					JOINT Neck1
					{
						OFFSET -0.054170 1.746240 0.172020
						CHANNELS 3 Zrotation Yrotation Xrotation
						JOINT Head
						{
							OFFSET 0.104070 1.761360 -0.123970
							CHANNELS 3 Zrotation Yrotation Xrotation
							End Site
							{
								OFFSET 0.000000 0.000000 0.000000
							}
						}
					}
				}
				JOINT LeftShoulder
				{
					OFFSET 0.000000 0.000000 0.000000
					CHANNELS 3 Zrotation Yrotation Xrotation
					JOINT LeftArm
					{
						OFFSET 3.362410 1.200890 -0.311210
						CHANNELS 3 Zrotation Yrotation Xrotation
						JOINT LeftForeArm
						{
							OFFSET 4.983000 -0.000000 -0.000000
							CHANNELS 3 Zrotation Yrotation Xrotation
							JOINT LeftHand
							{
								OFFSET 3.483560 -0.000000 -0.000000
								CHANNELS 3 Zrotation Yrotation Xrotation
								JOINT LeftFingerBase
								{
									OFFSET 0.000000 0.000000 0.000000
									CHANNELS 3 Zrotation Yrotation Xrotation
									JOINT LeftHandIndex1
									{
										OFFSET 0.715260 -0.000000 -0.000000
										CHANNELS 3 Zrotation Yrotation Xrotation
										End Site
										{
											OFFSET 0.000000 0.000000 0.000000
										}
									}
								}
								JOINT LThumb
								{
									OFFSET 0.000000 0.000000 0.000000
									CHANNELS 3 Zrotation Yrotation Xrotation
									End Site
									{
										OFFSET 0.000000 0.000000 0.000000
									}
								}
							}
						}
					}
				}
				JOINT RightShoulder
				{
					OFFSET 0.000000 0.000000 0.000000
					CHANNELS 3 Zrotation Yrotation Xrotation
					JOINT RightArm
					{
						OFFSET -3.136600 1.374050 -0.404650
						CHANNELS 3 Zrotation Yrotation Xrotation
						JOINT RightForeArm
						{
							OFFSET -5.241900 -0.000000 -0.000000
							CHANNELS 3 Zrotation Yrotation Xrotation
							JOINT RightHand
							{
								OFFSET -3.444170 -0.000000 -0.000000
								CHANNELS 3 Zrotation Yrotation Xrotation
								JOINT RightFingerBase
								{
									OFFSET 0.000000 0.000000 0.000000
									CHANNELS 3 Zrotation Yrotation Xrotation
									JOINT RightHandIndex1
									{
										OFFSET -0.622530 -0.000000 -0.000000
										CHANNELS 3 Zrotation Yrotation Xrotation
										End Site
										{
											OFFSET 0.000000 0.000000 0.000000
										}
									}
								}
								JOINT RThumb
								{
									OFFSET 0.000000 0.000000 0.000000
									CHANNELS 3 Zrotation Yrotation Xrotation
									End Site
									{
										OFFSET 0.000000 0.000000 0.000000
									}
								}
							}
						}
					}
				}
			}
		}
	}
}
MOTION
Frames: 11
Frame Time: 0.008333
-27.026993 17.466028 1.569401 177.509146 27.756241 -170.143494 2.065309 -4.052892 -3.440735 -9.519081 7.865143 -26.244282 4.969519 14.585102 42.195120 -3.709489 17.468000 1.313517 0.392900 -4.024600 -11.145900 -6.239945 2.067888 -3.890524 30.731660 -2.468096 -12.592038 -0.922351 -10.490581 23.779275 -0.673629 -20.505785 -39.264169 -1.314000 -7.260700 20.490000 11.959615 3.091443 -18.549329 0.697351 -0.507634 -1.804061 -4.258309 0.320857 13.873448 3.862724 10.881033 -13.560484 0.772697 15.184400 13.539645 -1.546700 7.480000 12.632500 -6.566890 -1.072668 -0.694326 -76.229407 -19.447730 78.755604 104.987774 -57.882522 -69.029882 0.838650 -0.362615 -36.800776 -2.138585 -12.011838 0.505100 -7.125000 0.000000 0.000000 -20.581900 19.068800 13.632000 10.835698 0.272945 2.696158 79.037826 44.915862 104.580001 -119.080850 50.189603 -80.032593 0.712052 0.123703 -7.377755 0.074564 -16.913715 0.188200 7.125000 0.000000 0.000000 25.139400 -45.299600 -0.198700 
-27.023080 17.457568 1.550050 177.685653 28.114716 -170.148154 2.075558 -4.065504 -3.465537 -9.431743 7.818732 -26.471413 5.050053 14.659681 42.548141 -3.530590 16.792559 1.541262 0.416700 -4.143400 -11.480400 -6.258643 2.074672 -3.889599 30.877604 -1.955680 -12.249290 -0.916673 -10.507183 23.796958 -0.659773 -20.491956 -39.189573 -1.702800 -8.217400 23.376400 12.001246 3.206325 -18.442725 0.713030 -0.382717 -1.768808 -4.143527 0.375389 13.961660 3.837242 10.874597 -13.674398 0.759370 15.157764 13.478894 -1.552200 7.455400 12.620200 -6.559515 -1.067672 -0.687601 -76.296354 -19.464252 78.913633 105.186309 -57.844193 -69.194038 0.849037 -0.352813 -36.758564 -2.165494 -12.318980 0.527200 -7.125000 0.000000 0.000000 -20.570400 18.779500 13.766400 10.858168 0.274148 2.703552 78.807519 44.986973 104.462801 -118.916005 50.220883 -79.904549 0.725563 0.109430 -7.014390 -0.500551 -17.068336 0.362200 7.125000 0.000000 0.000000 24.691600 -45.498700 -0.324000 
-27.025936 17.464230 1.527208 177.424259 28.630553 -170.219206 2.073569 -4.092065 -3.480635 -9.733932 7.560266 -26.755522 5.082492 14.749623 42.793601 -3.400601 16.319148 1.634939 0.492200 -4.498200 -12.482700 -6.252328 2.088849 -3.904500 30.516239 -1.979107 -12.139320 -0.907763 -10.423639 23.602981 -0.578404 -20.428967 -38.603862 -1.805000 -8.447500 24.081600 11.696459 3.249703 -18.464635 0.697236 -0.266315 -1.749665 -3.967030 0.412575 14.015350 3.739685 10.939809 -13.627534 0.691517 15.240983 13.332036 -1.569400 7.474000 12.517900 -6.555309 -1.069087 -0.671543 -76.420064 -19.460062 78.852029 105.271108 -57.830163 -69.265743 0.855168 -0.353877 -36.500985 -2.292867 -12.391593 0.557600 -7.125000 0.000000 0.000000 -20.650900 18.714900 13.860300 10.867418 0.273244 2.692383 78.602805 44.907792 104.510533 -118.780567 50.255409 -79.777649 0.734567 0.077878 -6.275105 -1.267229 -16.886830 0.582200 7.125000 0.000000 0.000000 23.931600 -45.403500 -0.253000 
-27.019485 17.469094 1.504895 177.684659 28.988724 -170.358376 2.075748 -4.085024 -3.485586 -9.272687 6.943974 -26.503036 5.108418 14.783948 43.003559 -3.214451 15.483151 1.155460 0.429200 -4.204600 -11.653000 -6.262101 2.086742 -3.931286 30.751914 -2.163776 -11.722177 -0.883226 -10.372424 23.451117 -0.517187 -20.475648 -38.302236 -1.751900 -8.328900 23.717600 11.817568 3.256515 -18.174416 0.708037 -0.258831 -1.720164 -4.002843 0.417431 13.951661 3.890463 11.024830 -13.470918 0.622087 15.289640 13.200033 -1.636100 7.504400 12.429000 -6.546911 -1.083201 -0.649938 -76.420289 -19.395122 78.743879 105.067624 -57.868486 -69.087885 0.860900 -0.368240 -36.092587 -2.498383 -12.298385 0.594000 -7.125000 0.000000 0.000000 -20.801000 18.814500 13.926200 10.863375 0.269757 2.677903 78.792778 44.659578 104.520529 -118.772140 50.282649 -79.738623 0.737999 0.061134 -5.820967 -1.392936 -16.618389 0.609300 7.125000 0.000000 0.000000 23.703600 -45.162800 -0.101100 
-27.020754 17.475757 1.478353 177.707682 29.405765 -170.509596 2.069116 -4.084999 -3.479374 -9.020779 6.054059 -26.185942 5.070911 14.812736 43.077206 -3.046931 14.652557 -0.063142 0.268400 -3.332900 -9.207000 -6.248193 2.084709 -3.971082 30.687427 -3.008732 -11.642949 -0.877595 -10.301135 23.299483 -0.423129 -20.186354 -37.360509 -1.632100 -8.053700 22.877200 11.797076 3.283366 -18.001147 0.674536 -0.183783 -1.698291 -4.125831 0.454250 13.931836 4.209215 11.058999 -13.403424 0.479876 15.254832 13.154218 -1.780800 7.507300 12.441600 -6.541514 -1.091972 -0.637168 -76.369171 -19.298297 78.794719 104.904334 -57.902967 -68.929024 0.856574 -0.353588 -35.827643 -2.077074 -12.403151 0.517000 -7.125000 0.000000 0.000000 -20.513400 18.697700 13.763000 10.856943 0.259117 2.673459 79.080365 44.490439 104.587820 -118.915383 50.262648 -79.873739 0.757415 0.068059 -6.078252 -1.426550 -17.134330 0.643500 7.125000 0.000000 0.000000 23.873800 -45.641900 -0.401300 
-27.025618 17.479458 1.448849 177.579845 29.892816 -170.640476 2.054102 -4.100717 -3.483668 -9.008378 5.348828 -26.074300 5.019396 14.830499 43.039793 -2.930987 14.144069 -0.675483 0.180000 -2.732900 -7.536100 -6.240648 2.089395 -4.003568 30.444761 -3.553098 -11.567756 -0.873627 -10.222521 23.135523 -0.382665 -19.820521 -36.635674 -1.519800 -7.784600 22.061900 11.518111 3.289973 -17.971307 0.687238 -0.130580 -1.670519 -3.891765 0.459011 14.007419 4.142825 11.056535 -13.399511 0.419194 15.272826 13.137534 -1.809000 7.505000 12.432900 -6.528682 -1.088402 -0.626915 -76.508984 -19.284950 78.901382 105.030878 -57.884350 -69.003252 0.841656 -0.317884 -35.739041 -1.338991 -12.536829 0.375700 -7.125000 0.000000 0.000000 -20.011100 18.528700 13.459500 10.872354 0.258032 2.660443 78.934634 44.428369 104.784288 -119.064344 50.212034 -80.076173 0.784798 0.077055 -6.578467 -2.069968 -18.223108 0.893000 7.125000 0.000000 0.000000 23.753500 -46.717600 -1.065700 
-27.029954 17.480409 1.417230 177.725300 30.375900 -170.583692 2.052297 -4.102724 -3.496347 -8.780494 4.789494 -26.072357 4.956654 14.787392 42.835486 -2.856259 13.867389 -0.537655 0.094400 -1.981900 -5.455500 -6.239059 2.093434 -3.997576 30.462683 -3.478077 -11.438255 -0.868721 -10.200984 23.080743 -0.397881 -19.596756 -36.469437 -1.476900 -7.679000 21.743200 11.596415 3.326658 -17.859966 0.682716 -0.085078 -1.679595 -3.901085 0.479181 13.965240 3.929167 11.105037 -13.557871 0.642056 15.396481 13.247368 -1.619200 7.547500 12.502500 -6.538453 -1.087019 -0.638158 -76.450000 -19.282068 78.883850 105.044029 -57.879051 -69.024802 0.838700 -0.319670 -35.729547 -1.298743 -12.486838 0.365300 -7.125000 0.000000 0.000000 -19.988200 18.574900 13.420000 10.857697 0.282325 2.646913 79.013349 44.341912 104.623521 -118.748598 50.323092 -79.693728 0.746787 0.073356 -6.016679 -1.161762 -16.886448 0.554900 7.125000 0.000000 0.000000 24.012200 -45.389900 -0.245500 
-27.036193 17.477554 1.382757 177.866755 30.861411 -170.582428 2.058270 -4.102178 -3.507687 -8.614161 4.482563 -26.086249 4.872989 14.705700 42.503010 -2.787153 13.657458 0.020170 0.243900 -3.177900 -8.774500 -6.232698 2.102739 -4.000817 30.468163 -3.288930 -11.188201 -0.864983 -10.190127 23.053623 -0.401038 -19.501406 -36.380969 -1.499300 -7.734400 21.910300 11.783326 3.363894 -17.736625 0.633468 -0.044160 -1.646751 -4.192289 0.515547 14.023387 4.128016 11.202220 -13.559516 0.600648 15.433085 13.108730 -1.664600 7.567200 12.436700 -6.559984 -1.081800 -0.629595 -76.237855 -19.393990 78.748324 104.931343 -57.896621 -68.966350 0.842486 -0.340279 -35.689739 -1.570831 -12.365024 0.414000 -7.125000 0.000000 0.000000 -20.179700 18.709700 13.501500 10.849248 0.260929 2.685182 79.224626 44.443621 104.860187 -118.847693 50.288666 -79.783467 0.780265 0.066239 -6.059750 -1.709468 -17.572322 0.751500 7.125000 0.000000 0.000000 23.791300 -46.075100 -0.669100 
-27.048037 17.474170 1.346591 177.809623 31.416351 -170.736891 2.049391 -4.110252 -3.511082 -8.631311 4.231037 -26.062194 4.764625 14.614857 42.083720 -2.676986 13.368020 1.050660 0.428400 -4.200500 -11.641300 -6.228928 2.117120 -4.027110 30.256236 -3.231449 -10.843787 -0.859898 -10.138252 22.945163 -0.393801 -19.320356 -36.100589 -1.562300 -7.887800 22.373900 11.587464 3.373673 -17.611555 0.621269 0.023235 -1.604960 -4.094497 0.533434 14.095100 4.107432 11.332359 -13.526779 0.537368 15.600732 12.990130 -1.678500 7.629300 12.369700 -6.559183 -1.074711 -0.615682 -76.320715 -19.446379 78.787520 104.896286 -57.903123 -68.919509 0.840769 -0.333935 -35.605086 -1.461219 -12.380403 0.393400 -7.125000 0.000000 0.000000 -20.106600 18.687600 13.456400 10.866569 0.246861 2.713918 79.073806 44.589753 104.793015 -118.798006 50.290849 -79.764484 0.780132 0.070438 -6.088851 -1.757588 -17.711797 0.772200 7.125000 0.000000 0.000000 23.810500 -46.211800 -0.754600 
-27.054064 17.475439 1.309051 178.017858 32.086632 -170.575718 2.070932 -4.092218 -3.506367 -8.342862 3.913906 -26.154624 4.650024 14.480659 41.602993 -2.619191 13.196334 1.528567 0.473100 -4.411400 -12.237100 -6.210830 2.127647 -4.003232 30.297436 -3.094866 -10.664501 -0.832939 -10.051422 22.696720 -0.356203 -19.155813 -35.652018 -1.532500 -7.815600 22.155400 11.927244 3.486869 -17.402119 0.486095 0.226411 -1.676848 -4.755418 0.657953 13.706770 4.651404 11.418498 -13.136346 0.624944 15.553607 12.943920 -1.738500 7.679000 12.297200 -6.607804 -1.110857 -0.631717 -75.635214 -18.973291 78.810931 105.019132 -57.893611 -69.093574 0.845255 -0.334877 -35.527788 -1.132878 -12.673024 0.336100 -7.125000 0.000000 0.000000 -19.857500 18.411200 13.397700 10.795923 0.247925 2.714994 79.843547 44.335403 104.999028 -118.659694 50.358736 -79.524773 0.825108 0.053950 -6.333739 -2.169063 -17.962491 0.921600 7.125000 0.000000 0.000000 23.507300 -46.474100 -0.904400 
-27.055228 17.485803 1.270770 178.208836 32.662133 -170.432427 2.055618 -4.104633 -3.531515 -7.815876 3.110919 -25.961006 4.502013 14.341018 41.077202 -2.586313 12.960370 0.842294 0.284100 -3.428200 -9.473400 -6.247153 2.122293 -4.018248 30.426088 -2.888257 -10.300668 -0.780614 -9.918378 22.290948 -0.274997 -19.297755 -35.285502 -1.397700 -7.479100 21.142800 11.557213 3.486022 -17.497186 0.612709 0.193745 -1.633005 -4.041310 0.600467 13.896640 4.328760 11.472879 -13.180684 0.507799 15.731718 12.902249 -1.743600 7.718500 12.278300 -6.551335 -1.094789 -0.613925 -76.192036 -19.051694 78.806153 105.155530 -57.869323 -69.142299 0.838861 -0.310544 -35.298645 -0.913535 -12.669207 0.293799 -7.125000 0.000000 0.000000 -19.717600 18.388000 13.301500 10.867468 0.238343 2.720274 79.234574 44.543964 104.961111 -118.529484 50.373361 -79.494632 0.814285 0.064268 -6.683287 -2.505484 -18.257016 1.038900 7.125000 0.000000 0.000000 23.349000 -46.790600 -1.089700 
